<?xml version="1.0" encoding="UTF-8" standalone="no"?>
<svg
   version="1.0"
   width="1024.000000pt"
   height="1024.000000pt"
   viewBox="0 0 1024.000000 1024.000000"
   preserveAspectRatio="xMidYMid meet"
   id="svg1"
   sodipodi:docname="participant.svg"
   inkscape:version="1.4.2 (ebf0e940d0, 2025-05-08)"
   xmlns:inkscape="http://www.inkscape.org/namespaces/inkscape"
   xmlns:sodipodi="http://sodipodi.sourceforge.net/DTD/sodipodi-0.dtd"
   xmlns="http://www.w3.org/2000/svg"
   xmlns:svg="http://www.w3.org/2000/svg">
  <defs
     id="defs1" />
  <sodipodi:namedview
     id="namedview1"
     pagecolor="#ffffff"
     bordercolor="#000000"
     borderopacity="0.25"
     inkscape:showpageshadow="2"
     inkscape:pageopacity="0.0"
     inkscape:pagecheckerboard="0"
     inkscape:deskcolor="#d1d1d1"
     inkscape:document-units="pt"
     inkscape:zoom="0.46360035"
     inkscape:cx="283.64949"
     inkscape:cy="696.72079"
     inkscape:window-width="1920"
     inkscape:window-height="1013"
     inkscape:window-x="0"
     inkscape:window-y="31"
     inkscape:window-maximized="1"
     inkscape:current-layer="svg1" />
  <g
     transform="matrix(0.1,0,0,-0.1,0,1024)"
     fill="#000000"
     stroke="none"
     id="g1"
     style="display:inline"
     inkscape:label="profil-icon">
    <circle
       cx="5120"
       cy="5120"
       r="4500"
       stroke="#000000"
       stroke-width="100"
       fill="none"
       id="circle1" />
    <path
       style="display:inline;fill:#00ff00;fill-opacity:1;stroke:none;stroke-width:21.6991;stroke-dasharray:none"
       d="m 3851.3268,4494.2082 c -233.3995,26.363 -538.5378,161.7307 -751.9224,333.5733 -315.0622,253.7254 -550.2113,637.5102 -660.8779,1078.613 -60.6376,241.6943 -83.3721,435.9961 -94.1631,804.7717 l -3.6288,124.0101 30.3848,-2.7864 c 16.7118,-1.5324 77.8103,-4.1865 135.7747,-5.8981 204.387,-6.0343 395.7383,-27.4641 588.2625,-65.8801 422.0948,-84.2244 794.4453,-267.3491 1065.7916,-524.1643 258.989,-245.1196 452.3926,-607.4351 503.2325,-942.7382 8.3311,-54.9455 10.3225,-103.238 10.3242,-250.3722 0,-166.2316 -1.1209,-187.8309 -12.7431,-245.1063 -7.0099,-34.5457 -16.8199,-76.5313 -21.8,-93.3014 l -9.0548,-30.4908 c -63.664,-72.4333 -58.7329,-69.9924 -101.6156,-106.7481 -25.4232,-21.7908 -218.6327,-65.5075 -293.4339,-73.9238 -60.4293,-6.7995 -323.094,-6.4979 -384.5307,0.4415 z"
       id="path31"
       inkscape:label="big-leaf-l"
       sodipodi:nodetypes="sssscssssscsscssss" />
    <path
       style="display:inline;fill:#00ff00;fill-opacity:1;stroke:none;stroke-width:21.8188;stroke-opacity:1"
       d="m 5881.1774,4489.2949 c -114.1711,15.3816 -244.7639,45.1784 -300.9852,68.6746 l -21.5737,9.0162 c -74.8644,83.1119 -95.1656,106.4043 -103.5206,121.3553 -6.5671,11.7522 -20.7339,88.2489 -28.9284,156.2069 -10.0708,83.517 -10.0487,342.9819 0.032,415.2598 19.8746,142.452 61.9652,291.9723 119.2572,423.6436 198.3287,455.8082 610.4082,810.0579 1153.163,991.3317 271.4474,90.6603 561.2977,137.4675 908.7058,146.7445 l 138.3267,3.6939 4.1882,-44.6967 c 4.4856,-47.8686 0.079,-220.6304 -9.2303,-360.8529 -13.2456,-199.7783 -81.711,-533.8329 -145.3948,-709.4065 -87.3522,-240.8268 -207.2091,-460.275 -342.9683,-627.9468 -54.3043,-67.0695 -177.8055,-191.0264 -247.1941,-248.1062 -131.371,-108.0671 -302.0211,-206.5555 -456.0405,-263.1974 -81.0431,-29.8043 -209.212,-62.6741 -297.1552,-76.2077 -82.9136,-12.7595 -293.632,-15.8927 -370.6849,-5.512 z"
       id="path34"
       inkscape:label="big-leaf-r"
       sodipodi:nodetypes="cscsscssscscssssscc" />
    <path
       style="display:inline;fill:#00ff00;stroke:none;stroke-width:22.2922"
       d="m 4673.8587,6569.9752 c -145.0054,13.814 -254.108,62.3997 -345.548,153.8796 -166.9016,166.9741 -246.9727,369.4751 -255.5749,646.3522 l -3.2542,104.7434 52.0159,-4.0853 c 120.0406,-9.428 286.2006,-54.457 388.4708,-105.2748 209.4899,-104.0949 364.9114,-288.6894 404.4802,-480.4022 11.7863,-57.1043 14.0016,-213.7472 5.5514,-222.2584 -72.0068,-72.5264 -65.4309,-58.5667 -93.9895,-92.0726 -2.8882,-3.3885 -108.0955,-5.079 -152.1517,-0.8819 z"
       id="path32"
       inkscape:label="small-leaf-l"
       sodipodi:nodetypes="ssscssssss" />
    <path
       style="display:inline;fill:#00ff00;stroke:none;stroke-width:22.9351"
       d="m 5249.6378,6313.7192 c -88.8162,97.0412 -59.2847,74.27 -85.9218,115.2397 -4.9213,7.5692 -2.572,103.9376 10.2849,165.5706 21.6428,103.7511 74.5043,196.9616 158.7732,279.965 109.0864,107.4481 258.6806,181.7221 434.2744,215.6182 103.4062,19.9613 107.4042,20.1605 121.5108,6.054 11.6506,-11.6506 12.2087,-16.7643 8.3422,-76.439 -16.6204,-256.5091 -76.2187,-414.5169 -205.388,-544.5267 -82.1311,-82.6655 -153.9338,-125.2019 -251.2359,-148.8332 -56.5863,-13.7428 -179.7976,-24.4948 -190.6398,-12.6486 z"
       id="path33"
       inkscape:label="small-leaf-r"
       sodipodi:nodetypes="ssssssssss" />
    <path
       id="plant-3"
       d="m 4010,7529.7393 c -13,-14 -17,-39 -17,-108 0,-113 15,-256 34,-325 28,-103 36,-124 83,-219 40,-78 64,-111 138,-186 151,-153 302,-211 521,-202 l 112,5 40,-91 c 74,-168 73,-136 70,-1278 l -3,-1017 -122,182 c -68,100 -141,208 -164,239 l -42,58 26,97 c 99,376 61,740 -113,1098 -141,290 -336,511 -615,699 -393,264 -924,405 -1536,406 -89,0 -97,-2 -119,-25 l -23,-25 6,-252 c 13,-530 112,-929 324,-1296 156,-270 361,-487 598,-632 270,-166 511,-234 825,-234 178,1 283,17 440,68 l 105,34 18,-21 c 60,-74 275,-392 345,-509.9999 l 52,-88 v -634 c 0,-617 1,-635 19,-645 27,-14 47,-13 65,6 14,14 16,86 16,646 v 631 l 32,56 c 77,134.9999 352,539.9999 377,555.9999 5,3 29,-4 54,-14 151,-65 438,-102 637,-82 438,44 818,253 1103,606 111,137 167,226 247,390 172,352 247,695 257,1176 l 6,256 -24,16 c -28,20 -153,22 -379,7 -479,-33 -863,-143 -1195,-343 -391,-235 -669,-580 -788,-977 -54,-178 -70,-290 -70,-485 -1,-176 12,-277 52,-418 l 20,-67 -88,-123 c -48,-67 -120,-173 -161,-236 l -75,-113 -3,958 c -2,1058 -6,989 61,1117 l 31,59 90,-7 c 220,-16 419,81 541,265 95,144 134,275 142,486 l 6,152 -25,16 c -21,14 -38,15 -119,6 -192,-20 -356,-82 -485,-183 -114,-90 -192,-203 -230,-332 -22,-74 -25,-263 -5,-312 11,-27 10,-35 -5,-58 -20,-31 -16,-37 -49,65 -9,30 -32,86 -50,123 l -34,68 19,87 c 45,201 6,388 -115,557 -138,195 -366,313 -678,355 -117,15 -161,13 -180,-8 z m 251,-98 c 201,-41 335,-108 458,-229 114,-112 178,-244 185,-380 3,-69 -2,-155 -8,-155 -5,1 -35,37 -68,82 -61,82 -316,353 -366,389 -38,27 -79,12 -79,-30 0,-24 17,-44 95,-116 142,-131 335,-359 335,-397 0,-7 -40,-9 -117,-5 -125,5 -193,25 -284,82 -96,61 -208,207 -255,332 -37,96 -64,248 -64,353 v 90 h 45 c 25,0 81,-7 123,-16 z m 1605,-419 c -10,-244 -67,-399 -193,-526 -70,-71 -137,-111 -227,-134 -57,-15 -174,-21 -186,-9 -11,12 121,173 255,308 76,77 138,141 138,142 0,20 -23,53 -40,57 -17,4 -36,-8 -83,-52 -89,-82 -235,-236 -286,-303 -25,-31 -49,-54 -54,-51 -16,10 0,155 24,219 77,205 271,349 539,399 115,21 115,21 113,-50 z m -3008,-250 c 271,-36 445,-78 633,-149 468,-179 796,-467 992,-871 111,-229 153,-407 154,-660 1,-169 -11,-262 -50,-383 -2,-8 -60,56 -131,145 -135,169 -362,429 -437,503 l -46,44 v 296 c 0,217 -3,299 -12,308 -17,17 -48,15 -70,-5 -16,-15 -18,-36 -18,-252 v -236 l -78,80 c -159,166 -528,507 -600,557 -42,28 -89,-3 -72,-47 4,-11 45,-54 91,-95 260,-233 567,-532 741,-722 l 80,-88 h -224 c -213,0 -226,-1 -243,-20 -15,-16 -17,-26 -9,-48 l 9,-27 281,-5 281,-5 93,-110 c 203,-240 293,-357 278,-366 -19,-13 -130,-46 -223,-66 -112,-25 -396,-25 -514,0 -448,96 -812,366 -1066,792 -196,329 -300,739 -312,1229 l -6,229 184,-6 c 101,-4 234,-13 294,-22 z m 4847,-57 c 4,-116 -8,-368 -22,-458 -35,-224 -97,-487 -130,-555 -5,-11 -21,-50 -35,-88 -52,-140 -153,-323 -252,-454 -317,-422 -780,-652 -1266,-630 -178,8 -427,67 -419,98 5,18 177,235 307,387 l 70,81 270,1 c 285,0 295,2 295,46 0,45 -18,48 -251,49 -120,0 -219,4 -219,8 0,28 497,517 823,811 72,64 87,83 87,107 0,21 -6,32 -22,38 -26,10 -54,-4 -110,-54 -232,-208 -327,-296 -458,-425 l -155,-151 -2,223 c -2,141 -7,231 -14,245 -15,28 -42,34 -68,16 -20,-14 -21,-22 -21,-306 v -292 l -58,-60 c -126,-132 -353,-397 -492,-573 -73,-94 -68,-97 -96,44 -27,138 -25,405 4,552 81,403 313,756 659,1003 310,221 696,356 1138,399 154,14 184,16 317,18 l 117,2 z"
       style="display:inline" />
  </g>
</svg>
