<?xml version="1.0" encoding="UTF-8" standalone="no"?>
<svg
   version="1.0"
   width="1080pt"
   height="280pt"
   viewBox="60 660 1080 280"
   preserveAspectRatio="xMidYMid"
   id="svg14"
   xml:space="preserve"
   xmlns="http://www.w3.org/2000/svg"
   xmlns:svg="http://www.w3.org/2000/svg"><defs
     id="defs14" /><!-- QUEZAP --><!-- Bulle avec question --><path
     id="Chemin #1-3"
     fill="#000000"
     stroke="#000000"
     stroke-width="2.85691"
     d="m 214.46014,927.29558 c -2.20781,-3.08546 -4.40877,-6.23261 -6.61658,-9.42777 -2.20096,-3.19515 -4.50477,-6.32859 -6.93199,-9.41405 -2.42722,-3.08546 -4.79959,-6.28063 -7.11025,-9.57864 -2.31065,-3.30487 -4.56647,-6.61658 -6.76742,-9.92145 0,0 -1.65243,-2.63292 -1.65243,-2.63292 -20.71369,17.61454 -40.76227,26.42521 -60.15946,26.42521 -14.52905,0 -26.425204,-5.61551 -35.681557,-16.85345 -9.256354,-11.23103 -13.884531,-28.19417 -13.884531,-50.88937 0,-12.56123 1.542727,-25.78069 4.628177,-39.65835 3.085452,-13.88453 7.377657,-27.54283 12.883472,-40.97482 5.512673,-13.44572 11.896129,-25.89037 19.170959,-37.34768 11.67672,-18.50587 25.11557,-33.59715 40.30971,-45.27387 15.20787,-11.68358 31.18364,-17.51851 47.93422,-17.51851 13.21944,0 23.40829,3.35971 30.56656,10.07914 7.15825,6.71256 12.17725,15.31069 15.0433,25.78066 2.85918,10.46311 4.2922,21.31017 4.2922,32.54125 0,21.59815 -2.64663,41.48218 -7.9399,59.65208 -5.2864,18.18359 -12.10868,34.54334 -20.48057,49.07924 0,0 31.40307,37.01858 31.40307,37.01858 -2.43407,3.08546 -4.85444,6.17091 -7.2748,9.25635 -2.42724,3.08546 -4.8476,6.17092 -7.27482,9.25636 -3.96309,5.06014 -8.20729,10.40143 -12.73265,16.01695 -4.51162,5.61553 -8.41986,10.41512 -11.72471,14.38506 z m -71.38366,-69.07985 c 7.93304,0 14.98158,-2.09126 21.15248,-6.2806 0,0 -13.21944,-21.81075 -13.21944,-21.81075 4.62132,-3.5174 8.74897,-6.65772 12.3898,-9.4072 3.63401,-2.75633 6.6646,-5.12185 9.09182,-7.11024 2.42037,-1.9884 4.51162,-3.68883 6.2806,-5.12185 1.76215,-1.43303 3.19516,-2.59178 4.29222,-3.46943 0,0 4.62817,-3.96308 4.62817,-3.96308 0,0 7.26795,8.2553 7.26795,8.2553 2.85918,-8.1456 5.1767,-16.51745 6.93884,-25.10872 1.76213,-8.59816 2.64663,-16.53805 2.64663,-23.806 0,-3.51741 -0.32911,-7.31594 -0.9942,-11.38875 -0.65823,-4.07964 -2.09124,-7.65877 -4.29905,-10.74421 -2.20096,-3.08546 -5.60868,-4.62818 -10.23685,-4.62818 -10.14086,0 -19.28751,3.68882 -27.43997,11.07334 -8.15245,7.38451 -14.97473,16.68885 -20.48055,27.9199 -5.51266,11.45733 -9.58547,22.69524 -12.22524,33.71372 -2.64662,11.01849 -3.96308,21.04277 -3.96308,30.07287 0,4.62817 1.64557,9.41408 4.94358,14.37136 3.30484,4.95731 7.71361,7.43252 13.22629,7.43252 z m 190.10501,59.1584 c -6.61657,0 -13.336,-1.43301 -20.16514,-4.29219 -6.82913,-2.86605 -12.55435,-7.27481 -17.18252,-13.22633 -4.62818,-5.94463 -6.93884,-13.54171 -6.93884,-22.79121 0,0 0,-2.64663 0,-2.64663 0,-1.1039 0.10975,-1.9884 0.32911,-2.64662 0.66509,-5.73209 1.59758,-13.21944 2.81119,-22.46894 1.21361,-9.25639 2.70149,-19.33553 4.46361,-30.24431 1.76215,-10.90194 3.57913,-21.75585 5.45097,-32.54807 1.87184,-10.79913 3.57913,-20.604 5.12185,-29.41467 3.30486,-17.62821 5.95149,-31.835 7.93304,-42.6341 1.98155,-10.79909 3.57911,-19.10923 4.78587,-24.95102 1.21361,-5.84179 2.15297,-10.18884 2.81804,-13.05489 2.42037,-0.21941 5.0053,-0.50053 7.75477,-0.82964 2.75635,-0.32226 5.67724,-0.60338 8.76268,-0.82279 3.08546,-0.43883 6.11606,-0.77479 9.08494,-0.9942 2.98264,-0.21941 5.89668,-0.43881 8.76271,-0.65824 0,0 20.16515,-1.98838 20.16515,-1.98838 -2.86605,13.43884 -5.56754,26.17148 -8.09761,38.18416 -2.53692,12.00583 -4.90243,23.40146 -7.10338,34.19368 0,0 -15.20102,73.04294 -15.20102,73.04294 -1.32332,5.50582 -2.31752,10.134 -2.98261,13.87768 -0.87763,3.52427 -1.81699,7.98788 -2.80432,13.39088 -0.9942,5.38925 -1.48788,10.2917 -1.48788,14.70047 0,3.52427 0.87763,6.44516 2.64663,8.76268 1.76214,2.31066 3.96308,3.46941 6.60973,3.46941 3.73685,0 6.82229,-1.43302 9.24266,-4.29907 2.42722,-2.85918 4.41562,-6.38345 5.95834,-10.57281 1.54274,-4.18935 2.75635,-8.43355 3.63399,-12.72577 0.88449,-4.29908 1.65243,-7.7685 2.31065,-10.41513 2.20781,-10.134 4.24422,-19.99373 6.11605,-29.5792 1.87185,-9.58546 3.85338,-19.7743 5.94464,-30.56656 2.09811,-10.79907 4.46361,-23.24373 7.1034,-37.34767 1.76213,-9.68832 3.58597,-19.54122 5.45782,-29.5655 1.86497,-10.03115 3.68882,-20.22 5.45096,-30.5734 0,0 50.23803,-3.31172 50.23803,-3.31172 0,0 -0.9942,5.28642 -2.9826,15.86608 -1.9747,10.57967 -4.84074,26.54859 -8.59127,47.9205 -1.54273,8.1456 -3.25002,17.29225 -5.12185,27.42625 -1.87185,10.13398 -3.90824,20.37772 -6.11605,30.73797 -2.20096,10.3534 -4.23736,20.15828 -6.1092,29.41464 -1.87183,9.2495 -3.57226,17.18252 -5.11498,23.79914 -4.40877,18.06017 -11.24479,32.21896 -20.50115,42.46265 -9.2495,10.2437 -19.43834,17.45684 -30.55967,21.64619 -11.1282,4.18251 -21.76275,6.27374 -31.89674,6.27374 z m 126.38698,-5.61551 c 0,0 43.29234,-234.97436 43.29234,-234.97436 0,0 104.4323,-8.92038 104.4323,-8.92038 -1.54273,4.84759 -2.86605,9.80488 -3.9631,14.86502 -1.11076,4.18936 -2.1598,8.54327 -3.14715,13.06174 -0.98735,4.51847 -1.81014,8.53642 -2.47523,12.06069 -2.86603,0.21941 -6.93884,0.38397 -12.22527,0.49368 -5.2864,0.10974 -10.68937,0.2194 -16.19519,0.33596 -5.51266,0.10288 -10.24369,0.15771 -14.20679,0.15771 -3.96308,0 -6.06119,0 -6.2806,0 0,0 -11.57387,59.15841 -11.57387,59.15841 0,0 19.17093,-0.99421 19.17093,-0.99421 2.42724,-0.21255 4.90245,-0.32225 7.43252,-0.32225 2.53692,0 5.01214,0 7.43936,0 2.42037,0 4.62818,0 6.60973,0 1.98153,0 3.52427,-0.10975 4.62818,-0.32911 -0.43883,3.08544 -0.8228,6.10918 -1.15877,9.08493 -0.32911,2.96889 -0.71308,5.99948 -1.15875,9.08497 0,0 -2.9689,18.17673 -2.9689,18.17673 -1.1039,0.22628 -2.54377,0.33598 -4.30592,0.33598 -1.75527,0 -3.84653,0 -6.26689,0 -2.42722,0.21941 -4.96414,0.32911 -7.60392,0.32911 -2.64664,0 -5.17671,0.10975 -7.59707,0.33596 -2.86604,0.21256 -5.84179,0.31541 -8.92723,0.31541 -3.08546,0 -6.39032,0.11662 -9.91459,0.33598 0,0 -11.24477,60.81083 -11.24477,60.81083 0,0 48.25648,-7.59706 48.25648,-7.59706 0,0 -3.29801,37.66993 -3.29801,37.66993 z m 152.5448,-3.30486 c 0,0 0,-48.24277 0,-48.24277 0,0 93.85258,-127.90915 93.85258,-127.90915 -4.84073,0 -11.01163,0.38397 -18.50584,1.15876 -7.49422,0.76794 -14.59761,1.65243 -21.31704,2.64663 -6.71943,0.9942 -11.62186,1.81699 -14.70046,2.47522 0,0 -7.93993,0.66508 -7.93993,0.66508 0,0 6.28065,-51.89046 6.28065,-51.89046 0,0 135.17023,-9.58546 135.17023,-9.58546 0,0 -8.59127,45.603 -8.59127,45.603 0,0 -90.21864,128.24511 -90.21864,128.24511 3.07859,0 8.20044,-0.16456 15.36554,-0.49367 7.15825,-0.33597 15.31073,-0.78165 24.45738,-1.33017 9.13979,-0.54853 18.01218,-1.15876 26.60344,-1.82384 0,0 0,50.23799 0,50.23799 -2.64663,0 -9.42092,0.2194 -20.32284,0.66509 -10.90878,0.43196 -25.61613,1.20675 -44.12198,2.31066 -16.75057,1.10391 -31.84185,2.26269 -45.28073,3.46944 -13.43885,1.21361 -23.68255,2.47523 -30.73109,3.79854 z m 265.00608,2.31066 c 0.43882,-3.74368 0.87763,-7.3708 1.32331,-10.8951 0.43882,-3.52427 0.87763,-7.0554 1.31646,-10.58652 0,0 1.98839,-18.499 1.98839,-18.499 0.21942,-3.08546 0.43198,-5.95149 0.65824,-8.59126 0.21941,-2.6535 0.43881,-5.07386 0.66509,-7.27481 0,0 -28.75641,0 -28.75641,0 0,0 -13.21944,47.58451 -13.21944,47.58451 -4.84758,0.66511 -10.57281,1.38506 -17.18943,2.15298 -6.60285,0.7748 -12.77375,1.48788 -18.49898,2.1461 -3.53113,0.44568 -7.00055,0.8845 -10.41512,1.33018 -3.41457,0.43196 -6.88398,0.87078 -10.40825,1.31646 0,0 26.10291,-86.58466 26.10291,-86.58466 3.08546,-10.35341 6.60973,-22.14669 10.57967,-35.36614 3.96309,-13.21947 7.98792,-26.76802 12.06072,-40.6457 4.07279,-13.88453 7.93303,-26.93944 11.56702,-39.17155 3.63397,-12.22523 6.55487,-22.52378 8.75581,-30.89565 14.98158,-1.09704 30.24429,-2.42037 45.78127,-3.96309 15.53024,-1.54272 30.67639,-3.63397 45.43169,-6.2806 -1.09705,12.3418 -2.14609,26.27433 -3.1403,41.80444 -0.98735,15.53698 -1.86497,31.56761 -2.63292,48.09191 -0.77479,16.52431 -1.60443,32.82238 -2.48893,48.90787 -0.43196,15.20098 -0.98048,30.89564 -1.64557,47.09772 -0.66509,16.19519 -1.33017,32.76748 -1.98155,49.73062 -3.31172,0.44567 -6.61658,0.88451 -9.92143,1.3302 -3.29801,0.43196 -6.60287,0.87077 -9.90774,1.31646 -5.51266,0.87763 -11.574,1.87183 -18.18373,2.97573 -6.60974,1.10391 -12.55438,2.09126 -17.84078,2.9689 z m -14.87873,-88.89533 c 1.33016,0 3.81224,-0.11661 7.44622,-0.33598 3.63397,-0.2194 7.10338,-0.43881 10.40139,-0.65136 3.30487,-0.21941 5.29327,-0.33598 5.95835,-0.33598 0,-2.85918 0.43883,-8.70097 1.31646,-17.51164 0.87764,-8.81754 1.76217,-18.06704 2.64665,-27.76224 0.43198,-5.72523 0.92564,-11.61501 1.48103,-17.6762 0.55538,-6.06119 1.15876,-12.29382 1.81698,-18.68412 0,0 1.98156,-28.74272 1.98156,-28.74272 0,0 -4.95044,0.32225 -4.95044,0.32225 0,0 -7.60396,28.42047 -7.60396,28.42047 z m 111.35752,89.88953 c 6.60973,-29.74377 12.89033,-58.82929 18.84182,-87.24975 2.42036,-11.45046 4.90244,-23.73056 7.43936,-36.84029 2.53008,-13.10977 5.12178,-26.38407 7.76158,-39.82292 2.6398,-13.43885 5.067,-26.16466 7.268,-38.17049 2.2078,-12.01268 3.9699,-22.5375 5.2932,-31.57445 8.8107,-2.63977 18.3412,-5.06014 28.5781,-7.26108 10.2505,-2.20781 19.452,-3.31172 27.5976,-3.31172 13.2195,0 23.6826,2.81117 31.3893,8.43355 7.7137,5.61553 13.2263,13.15775 16.5312,22.63351 3.3049,9.47576 4.9641,19.82916 4.9641,31.07394 0,12.33496 -2.2626,24.17622 -6.7811,35.52383 -4.5185,11.34076 -10.5728,21.52963 -18.1699,30.56656 -7.6039,9.03695 -16.3049,16.19519 -26.1097,21.48846 -9.8118,5.2864 -20.0006,7.92617 -30.5734,7.92617 0,0 -3.634,0 -3.634,0 -1.769,7.49423 -3.4214,15.64668 -4.9642,24.46423 -1.5427,8.80383 -2.8659,16.95627 -3.963,24.44364 -0.8776,4.40877 -1.6455,8.81752 -2.3106,13.21944 -0.6582,4.40877 -1.3165,8.81754 -1.9816,13.21944 z M 1050.604,790.47291 c 5.067,-1.31646 10.134,-4.67617 15.201,-10.07917 5.0739,-5.39612 9.2564,-12.2801 12.5544,-20.65195 3.3048,-8.37186 4.9641,-17.51851 4.9641,-27.43995 0,-8.14558 -1.817,-14.31653 -5.4578,-18.49902 -3.634,-4.18936 -7.6519,-6.2806 -12.0607,-6.2806 -2.4204,14.54275 -4.8476,28.31076 -7.2748,41.31079 -2.4204,13.00003 -5.0601,26.87769 -7.9262,41.6399 z"
     style="fill:#f0a61e;fill-opacity:1;stroke:#000000;stroke-width:4.857;stroke-dasharray:none;stroke-opacity:1" /></svg>
