<?xml version="1.0" encoding="UTF-8" standalone="no"?>
<svg
   version="1.0"
   width="1192pt"
   height="933pt"
   viewBox="0 0 1192 933"
   preserveAspectRatio="xMidYMid"
   id="svg14"
   xml:space="preserve"
   xmlns="http://www.w3.org/2000/svg"
   xmlns:svg="http://www.w3.org/2000/svg"><defs
     id="defs14" /><g
     transform="matrix(0.1,0,0,-0.1,0,933)"
     fill="#000000"
     stroke="none"
     id="g3"
     style="display:inline"><!-- Tige avec 2 feuilles --><path
       d="m 5721.2526,5109.4688 c 0,0 -255.226,-163.404 -227.226,-194.404 79,-91 133,-163 164,-223 l 29,-55 5,-725 5,-725 177,-3 177,-2 3,727 3,728 34,60 c 27,47 175,256 212,299 0,0 -206.771,172.2056 -207,173 l -49,-44 c -27,-23 -72,-55 -100,-69 -68,-36 -111.108,-22.5915 -226.108,53.4085 z"
       id="path1-7"
       style="display:inline;fill:#217546;fill-opacity:1" /><path
       d="m 6287.4426,4979.0768 c 0.04,-0.027 44,1 91,-7 131,-26 214,-30 335,-18 188,19 364,71 545,162 368,185 668,491 865,882 148,295 209,546 220,896 l 6,204 -284,-6 c -301,-6 -422,-19 -629,-72 -577,-145 -1072,-553 -1270,-1048 -84,-211 -113,-413 -96,-671 l 10,-149 c 17.343,-101.0259 58.531,-139.3547 207,-173 z m 1139,1537 c 14,-27 13,-84 -2,-104 -7,-9 -42,-25 -78,-36 -145,-41 -307,-147 -460,-302 -109,-110 -193,-228 -275,-390 -37,-72 -73,-133 -81,-136 -20,-7 -60,4 -78,23 -28,27 -18,71 43,187 168,321 462,612 736,728 33,14 71,31 85,37 42,18 98,15 110,-7 z"
       id="path1-3"
       style="display:inline;fill:#217546;fill-opacity:1" /><path
       d="m 3505.4431,6773.6232 c 7,-227 11,-262 59,-458 43,-180 149,-458 178,-469 5,-2 9,-12 9,-22 0,-9 7,-23 15,-30 8,-6 15.6134,-19.7395 19.6134,-31.7395 8,-26 53,-94 136,-207 75,-101 248,-279 338,-348 211,-161 470,-286 700,-337 118,-26 370,-31 481,-10 160.1737,32.0347 160.9366,32.527 231.0787,97.4901 72.0446,92.9451 72.9169,93.2789 93.9213,257.5099 30,244 -20,505 -143,737 -107,204 -162,284 -272,398 -163,167 -279.6134,256.7395 -475.6134,366.7395 -327,183 -623,253 -1113,264 l -264,6 z m 1097.9064,-383.5468 c 63.8792,-26.6942 112.5794,-59.5358 128.0936,-70.4532 118.1226,-72.0805 223.0917,-164.0202 321,-262 158,-163 328,-429 345,-539 5,-34 2,-46 -15,-63 -42,-42 -104,-21 -132,46 -48,113 -76,164 -145,268 -134,201 -290,344 -470,431 -61,30 -134,58 -161,64 -51,11 -70,31 -74,75 -3,40 1,55 23,75 30,27 92.9064,20.4532 179.9064,-24.5468 z"
       id="path1"
       style="display:inline;fill:#32934e;fill-opacity:1" /><!-- Patte gauche --><path
       d="m 5287,3809 c -58,-14 -114,-46 -297,-173 -36,-25 -123,-85 -195,-132 -156,-104 -225,-155 -225,-166 0,-21 167,-251 178,-246 6,2 346,227 662,437 97,64 123,133 79,211 -11,20 -33,44 -47,52 -35,21 -108,29 -155,17 z"
       id="path2"
       style="display:inline;fill:#32934e;fill-opacity:1" /><!-- Patte droite --><path
       d="m 6400,3809 c -35,-14 -59,-38 -82,-83 -41,-80 -5,-144 124,-228 46,-29 189,-123 318,-209 279,-185 318,-208 328,-193 4,6 28,37 53,70 56,73 119,168 119,180 0,5 -12,16 -28,25 -15,10 -65,43 -112,76 -273,188 -498,338 -534,354 -45,20 -144,25 -186,8 z"
       id="path3"
       style="display:inline;fill:#217546;fill-opacity:1" /></g><!-- QUEZAP --><!-- Bulle avec question --><g
     transform="matrix(4.6534214,0,0,4.6534214,-568.76546,-709.2417)"
     style="clip-rule:evenodd;display:inline;fill-rule:evenodd;image-rendering:optimizeQuality;shape-rendering:geometricPrecision;text-rendering:geometricPrecision"
     id="g14"><!-- Rayon de soleil sur la bulle --><!-- Bulle  --><g
       id="g29"
       style="display:inline"><path
         style="display:inline;opacity:1"
         fill="#e5a22b"
         d="m 248.5,158.5 c 2.111,1.27 3.111,3.27 3,6 0.158,1.819 -0.509,3.152 -2,4 -1.524,-1.027 -2.191,-2.527 -2,-4.5 0.196,-1.878 0.529,-3.712 1,-5.5 z"
         id="path11" /><path
         style="display:inline;opacity:1"
         fill="#f0a61e"
         d="m 254.5,210.5 c -0.667,2.667 -1.333,5.333 -2,8 -3.774,-1.438 -6.107,-4.105 -7,-8 -7.148,-1.643 -11.982,-5.977 -14.5,-13 -2.312,-10.536 1.188,-18.369 10.5,-23.5 19.176,-3.823 28.01,4.01 26.5,23.5 -2.414,6.582 -6.914,10.916 -13.5,13 z"
         id="path12" /></g><!-- Interrogation --><!-- Point --><g
       id="g27"
       style="display:inline"><path
         style="opacity:1"
         fill="#f6eedc"
         d="m 246.5,178.5 c 4.827,-0.345 8.661,1.322 11.5,5 0.903,5.191 -1.097,8.858 -6,11 -0.483,0.948 -0.649,1.948 -0.5,3 -1.333,0 -2.667,0 -4,0 -0.202,-2.489 0.298,-4.823 1.5,-7 1.896,-1.18 3.396,-2.68 4.5,-4.5 -0.145,-0.772 -0.478,-1.439 -1,-2 -5.439,-1.485 -7.439,0.349 -6,5.5 -1.853,1.26 -3.686,1.26 -5.5,0 -0.667,-2.333 -0.667,-4.667 0,-7 1.812,-1.477 3.645,-2.81 5.5,-4 z"
         id="path13" /><path
         style="opacity:1"
         fill="#faf0d6"
         d="m 247.5,199.5 c 3.466,0.609 4.466,2.442 3,5.5 -5.211,0.546 -6.211,-1.287 -3,-5.5 z"
         id="path14" /></g></g></svg>
